<svg width="12" height="12" viewBox="0 0 12 12" fill="none" xmlns="http://www.w3.org/2000/svg">
<path d="M5.5 1.48333C5.5 2.65 5.55 2.98333 5.75 3.06667C6.3 3.26667 6.5 3 6.5 2.06667C6.5 1.16667 6.5 1.16667 6.96667 1.26667C9.26667 1.81667 10.8333 3.68333 10.8333 5.91667C10.8333 7.41667 10.4333 8.43333 9.43333 9.43333C8.08333 10.7833 6.13333 11.2 4.23333 10.55C3.13333 10.1833 1.81667 8.86667 1.45 7.76667C0.933333 6.25 1.15 4.35 2 3.16667C2.43333 2.55 2.43333 2.05 1.96667 1.9C1.68333 1.81667 1.5 1.9 1.13333 2.35C0.383333 3.23333 0 4.48333 0 6C0 7.88333 0.433333 8.96667 1.73333 10.2667C3.03333 11.5667 4.11667 12 6 12C7.88333 12 8.96667 11.5667 10.2667 10.2667C11.5667 8.96667 12 7.88333 12 6C12 4.11667 11.5667 3.03333 10.2667 1.73333C9.08333 0.549999 7.85 -9.53674e-07 6.41667 -9.53674e-07H5.5V1.48333Z" fill="#151515"/>
<path d="M3.016 3.28291C3.016 3.44957 3.516 4.33291 4.14934 5.24957C5.23267 6.84957 5.29934 6.91624 5.94934 6.96624C6.766 7.03291 7.03267 6.74957 6.966 5.89957C6.916 5.31624 6.816 5.19957 5.24934 4.14957C3.53267 2.98291 2.99933 2.78291 3.016 3.28291Z" fill="#151515"/>
</svg>
