<svg width="195" height="78" viewBox="0 0 195 78" fill="none" xmlns="http://www.w3.org/2000/svg">
<path d="M161.041 6.68782C160.968 6.90575 160.605 7.22054 160.218 7.43847C159.83 7.63219 159.515 7.94698 159.515 8.1407C159.515 8.3102 159.273 8.67342 158.959 8.91557C158.135 9.54515 158.014 9.88415 158.305 10.4411C158.523 10.8527 158.765 10.9496 159.443 10.8769C160 10.8285 160.363 10.9254 160.436 11.1191C160.484 11.3128 160.218 11.4097 159.54 11.4097C159.007 11.4097 158.281 11.5307 157.942 11.6518C157.433 11.8455 157.142 11.7971 156.585 11.4823C155.932 11.0949 155.883 11.0949 155.326 11.6276C154.987 11.9182 154.43 12.233 154.043 12.354C153.559 12.4751 153.317 12.7415 153.171 13.2984C153.002 13.9038 152.663 14.2428 151.67 14.7997C149.733 15.8894 149.491 16.2526 149.636 17.7539C149.757 18.8678 149.709 19.0615 149.2 19.4731C148.135 20.3207 148.546 21.3377 149.951 21.3377C150.241 21.3377 150.556 21.5072 150.653 21.7009C150.726 21.9188 151.113 22.0641 151.646 22.0641C152.106 22.0641 152.493 22.161 152.493 22.3063C152.493 22.6937 154.721 22.282 155.375 21.7735C156.198 21.144 156.561 21.2408 155.907 21.9188C155.593 22.2336 154.794 22.7421 154.116 23.0327C152.542 23.7107 152.009 24.1708 152.009 24.873C152.009 25.212 151.815 25.4784 151.525 25.5752C150.726 25.8416 150.919 26.786 151.888 27.3671C152.372 27.6335 152.735 28.0451 152.735 28.2873C152.735 29.498 154.164 30.4424 155.351 30.0307C155.956 29.8128 156.246 29.9097 157.506 30.6361C161.937 33.2271 163.753 37.8763 162.397 43.2035L162.131 44.2689L159.927 44.6322C158.692 44.8259 157.288 45.1649 156.803 45.3828C155.932 45.746 155.883 45.8187 155.883 46.9326C155.883 48.0706 155.859 48.1191 154.866 48.5792L153.825 49.0634L153.752 50.8553C153.656 53.2526 153.777 53.3494 157.288 54.0759C159.782 54.5602 160.775 54.6328 165.69 54.6328C170.46 54.6086 171.599 54.536 173.633 54.1001C174.94 53.8095 176.175 53.4463 176.369 53.2768C176.756 52.962 176.853 49.911 176.49 49.2087C176.345 48.9666 175.812 48.6518 175.279 48.4581C174.359 48.1675 174.311 48.0949 174.238 47.0536C174.165 46.085 174.068 45.8671 173.366 45.4797C172.93 45.2133 171.453 44.8259 170.121 44.608L167.652 44.1963L167.434 43.373C167.143 42.2591 167.361 40.4915 167.966 39.1112C168.572 37.7552 170.799 35.5275 173.56 33.5661C176.248 31.6289 177.555 30.4424 177.919 29.5949C178.185 28.9169 178.209 28.9169 180.122 28.9411C182.519 28.9653 182.883 28.6747 182.64 26.8586L182.495 25.7205L183.294 25.6479C184.021 25.5752 184.093 25.5026 184.239 24.5582C184.408 23.2506 184.796 22.8148 185.934 22.6453C186.709 22.5242 186.878 22.3789 186.878 21.943C186.878 21.6283 186.709 21.3377 186.515 21.2408C186.224 21.144 186.2 20.9987 186.418 20.5386C186.854 19.57 186.321 18.8436 185.28 18.9646C184.578 19.0373 184.432 18.9646 184.239 18.3835C184.118 18.0203 183.803 17.6086 183.536 17.4391C183.149 17.197 183.076 16.9548 183.173 16.2042C183.318 15.1387 182.955 14.5576 182.132 14.5576C181.672 14.5576 181.551 14.4365 181.551 13.9522C181.551 13.2258 180.776 12.3783 180.122 12.3783C179.735 12.3783 179.589 12.1119 179.371 10.9738C179.226 10.2232 179.032 9.39986 178.984 9.15771C178.911 8.93978 178.185 8.40706 177.386 8.01962C176.078 7.36583 175.86 7.3174 175.521 7.63219C175.231 7.89855 175.013 7.92276 174.674 7.72905C174.359 7.55954 174.044 7.55954 173.633 7.75326C173.221 7.94698 172.906 7.94698 172.591 7.77748C172.325 7.63219 171.55 7.53533 170.848 7.58376C170.146 7.60798 169.056 7.53533 168.426 7.41426C166.683 7.12368 166.126 7.36583 165.763 8.57656C165.496 9.56936 164.068 11.2886 163.777 10.998C163.462 10.659 163.656 9.95679 164.237 9.37564C165.23 8.38284 165.061 7.6564 163.632 6.92996C162.276 6.25195 161.259 6.15509 161.041 6.68782ZM164.722 27.7788C165.157 28.0936 165.206 28.4084 165.182 30.6603C165.157 33.2997 164.794 34.4136 163.971 34.4136C163.39 34.4136 162.324 33.1544 161.428 31.3868C160.629 29.8128 160.605 29.7886 161.065 29.4254C161.332 29.2317 161.816 29.0864 162.131 29.0864C162.494 29.0864 162.76 28.9169 162.833 28.6021C162.906 28.3357 163.123 28.1178 163.293 28.1178C163.487 28.1178 163.705 27.9483 163.777 27.7546C163.971 27.2945 164.116 27.3187 164.722 27.7788ZM176.95 28.0693C176.514 28.8442 175.86 29.5707 175.037 30.1518C173.972 30.9267 173.318 30.6603 173.318 29.4738C173.318 28.5779 173.608 28.3599 174.868 28.3599C175.352 28.3599 175.836 28.1662 176.078 27.8998C176.611 27.3187 177.313 27.4882 176.95 28.0693ZM159.152 28.82C159.055 29.2317 158.934 29.5707 158.862 29.5707C158.789 29.5707 158.329 29.3285 157.845 29.0137L156.973 28.481L157.627 28.4084C157.966 28.3599 158.402 28.1662 158.571 27.9725C159.007 27.4398 159.346 27.9241 159.152 28.82ZM168.838 29.5707C168.911 29.6917 169.322 29.8128 169.71 29.8128C170.364 29.8128 170.436 29.8854 170.291 30.3455C170.073 31.0235 169.274 32.3553 168.79 32.8396C167.991 33.6387 167.022 32.1374 167.022 30.1034C167.022 29.3769 167.07 29.3285 167.845 29.3285C168.305 29.3285 168.765 29.4254 168.838 29.5707Z" fill="#F4F4F4"/>
<path d="M86.6289 26.1811V42.8892H89.8979H93.1669L93.2153 37.5619L93.2879 32.2347L97.2833 37.5619L101.279 42.8892H105.105C107.453 42.8892 108.906 42.7923 108.906 42.647C108.906 42.5259 106.897 39.8865 104.427 36.7871C101.957 33.6876 99.947 31.0724 99.947 30.9998C99.947 30.9271 101.811 28.8205 104.063 26.3263C106.34 23.8322 108.18 21.7498 108.18 21.7013C108.18 21.6287 106.461 21.5803 104.378 21.5803L100.552 21.6045L96.9201 25.9631L93.2879 30.3218L93.2153 19.9095L93.1669 9.47295H89.8979H86.6289V26.1811Z" fill="#F4F4F4"/>
<path d="M13.5976 10.7806C9.67478 11.5313 7.32596 12.742 4.63813 15.4056C2.24088 17.7787 0.884863 20.297 0.279497 23.5175C-0.180581 25.939 -0.0595078 29.6196 0.545858 31.8716C1.65973 36.0365 4.90449 39.9351 8.77884 41.7996C11.6362 43.1798 13.1859 43.4946 17.1329 43.4946C20.8862 43.4946 22.7991 43.1072 25.3901 41.7996C26.4555 41.2427 26.504 41.17 26.6492 39.9351C26.843 38.3127 26.8672 33.9298 26.6735 33.9298C26.6008 33.9298 26.1165 34.2931 25.5838 34.7289C23.3076 36.6903 20.1355 37.6589 16.6728 37.5136C13.7913 37.3683 12.0478 36.7387 10.377 35.2374C6.2363 31.5084 5.99415 23.5175 9.89271 19.3042C11.9752 17.028 15.9222 15.7689 19.3848 16.2532C21.8547 16.6164 23.5256 17.2944 25.4869 18.7957C26.1165 19.28 26.6492 19.6432 26.6977 19.5948C26.7219 19.5463 26.8187 17.9724 26.8914 16.1079L27.0609 12.6694L25.8259 12.1609C22.4843 10.708 17.0845 10.1026 13.5976 10.7806Z" fill="#F4F4F4"/>
<path d="M135.057 18.0692V21.5803H133.604H132.151V24.1228V26.6653H133.604H135.057V34.7773V42.8892H138.205H141.353V34.7773V26.6653H142.806H144.259V24.1228V21.5803H142.806H141.353V18.0692V14.558H138.205H135.057V18.0692Z" fill="#F4F4F4"/>
<path d="M42.7273 21.2413C41.3471 21.6771 39.7731 23.1542 38.974 24.7282L38.4413 25.8178V23.6869V21.5803H35.2934H32.1455V32.2347V42.8892H35.2692H38.3929L38.514 37.1261C38.635 31.2177 38.8045 30.1038 39.7005 28.9657C40.7659 27.5855 43.3085 27.0286 45.5362 27.6581C46.0689 27.8034 46.5048 27.8761 46.5532 27.8277C46.6743 27.7308 47.5944 21.2413 47.5218 21.1444C47.2554 20.8296 43.7201 20.9023 42.7273 21.2413Z" fill="#F4F4F4"/>
<path d="M72.8268 21.2651C67.887 22.6211 64.8359 26.7618 64.8359 32.1133C64.8602 37.949 68.2018 42.2834 73.529 43.3973C75.4177 43.7847 78.6867 43.5426 80.406 42.8888L81.7862 42.3803V38.9902V35.6244L80.6965 36.4719C79.3163 37.5131 77.9361 37.9006 76.241 37.731C73.3353 37.4163 71.3739 35.1643 71.3739 32.1133C71.3739 27.2461 76.3379 24.8973 80.5755 27.7546L81.8104 28.5779L81.7378 25.2847L81.6651 22.0157L80.4544 21.5315C78.7109 20.8292 74.9092 20.7082 72.8268 21.2651Z" fill="#F4F4F4"/>
<path d="M116.291 21.1922C112.344 22.185 109.317 25.3087 108.421 29.3525C107.961 31.3866 108.227 35.382 108.905 37.1497C109.922 39.8133 112.417 42.2105 115.032 43.0338C116.727 43.5423 120.335 43.736 122.006 43.397C124.04 42.9612 126.122 41.8715 127.454 40.5155C128.616 39.329 129.439 38.1425 129.222 37.9487C129.173 37.9003 128.035 37.3192 126.727 36.6654L124.33 35.4546L123.337 36.4717C120.843 38.9415 116.364 38.433 115.008 35.5273C114.717 34.9219 114.475 34.3166 114.475 34.1713C114.475 34.026 117.211 33.9291 122.345 33.9291H130.214V32.1372C130.214 28.5777 129.343 26.0836 127.405 24.0011C124.936 21.3617 120.335 20.1994 116.291 21.1922ZM121.328 26.5194C122.296 26.9311 123.071 27.7544 123.555 28.9167L123.919 29.8126H119.318C115.807 29.8126 114.717 29.74 114.717 29.4978C114.717 29.3525 114.959 28.7714 115.274 28.2387C116.267 26.4468 119.221 25.6235 121.328 26.5194Z" fill="#F4F4F4"/>
<path d="M63.1406 62.2599V77.2729H66.0464H68.9521V71.5341C68.9521 66.1826 68.9764 65.7226 69.4606 64.7298C70.2113 63.2042 71.5431 62.4052 73.335 62.3809C74.3762 62.3809 74.8847 62.502 75.3932 62.8895C76.5313 63.737 76.6524 64.5118 76.6766 71.1466L76.7008 77.2729H79.6308H82.5366L82.4639 69.5727C82.3913 62.6473 82.3428 61.824 81.9312 61.0491C80.7205 58.7487 79.1465 57.8528 76.0955 57.7075C73.3834 57.5864 71.7368 58.1434 69.9207 59.7415L68.71 60.8554V54.0511V47.2468H65.9253H63.1406V62.2599Z" fill="#F4F4F4"/>
<path d="M189.516 47.8044C187.41 49.2088 187.385 52.1146 189.444 53.4706C190.34 54.0517 192.277 54.0033 193.124 53.3979C194.553 52.3325 194.989 50.4195 194.141 48.9909C193.1 47.2959 191.042 46.7631 189.516 47.8044Z" fill="#F4F4F4"/>
<path d="M46.069 48.6034C40.6934 49.6204 36.1894 53.5674 34.7123 58.6282C34.0585 60.7833 33.9617 64.0039 34.4218 66.3285C35.4872 71.6315 38.6351 75.2637 43.7686 77.1524C45.2699 77.7094 46.0932 77.8304 48.6358 77.9515C52.1711 78.0726 54.3504 77.7094 56.7961 76.5471L58.2974 75.8448V72.6727C58.2974 70.9535 58.2248 69.5248 58.1279 69.5248C58.031 69.5248 57.353 69.9365 56.6024 70.4692C54.302 72.0674 52.7765 72.5274 49.677 72.5516C47.0618 72.5516 46.9407 72.5274 45.3426 71.7041C42.0009 69.9849 40.4512 66.9823 40.6691 62.5268C40.8144 59.7421 41.444 58.0955 43.0664 56.3278C44.4466 54.8265 45.7784 54.0759 47.9093 53.64C50.9846 52.9862 53.8177 53.5674 56.5055 55.3592C57.4015 55.9646 58.1521 56.4247 58.1763 56.4005C58.2005 56.3521 58.2974 54.9476 58.37 53.2526L58.5396 50.1773L57.1351 49.6688C53.5755 48.337 49.5317 47.9496 46.069 48.6034Z" fill="#F4F4F4"/>
<path d="M136.51 54.9957V58.1436H135.178H133.847V60.444V62.7444H135.178H136.51V70.0088V77.2732H139.416H142.322V70.0088V62.7444H143.654H144.985V60.444V58.1436H143.654H142.322V54.9957V51.8478H139.416H136.51V54.9957Z" fill="#F4F4F4"/>
<path d="M91.7614 58.0956C90.0664 58.7009 88.8557 59.7179 87.8871 61.3161C86.7006 63.2775 86.5068 64.1977 86.5068 67.8298C86.5068 72.1158 86.9911 73.5445 89.1462 75.7238C90.9381 77.4915 92.1731 78 94.8609 78C97.2339 78 98.7594 77.4673 100.091 76.1839L101.157 75.1669V76.2323V77.2736H103.941H106.726V67.7088V58.144H103.941H101.157V59.4758V60.8318L100.406 59.9601C99.9702 59.4758 99.1469 58.7978 98.5415 58.4346C97.0402 57.5628 93.7228 57.4176 91.7614 58.0956ZM98.9774 62.9869C101.423 64.2219 102.149 68.6047 100.382 71.2199C99.607 72.3338 98.3236 72.9391 96.7012 72.9391C93.8439 72.9391 92.1973 71.0262 92.1973 67.7088C92.1973 65.2873 93.0932 63.5681 94.7398 62.8416C95.8537 62.3573 97.8635 62.43 98.9774 62.9869Z" fill="#F4F4F4"/>
<path d="M152.614 57.974C149.152 59.1121 147.239 62.1873 146.997 66.9818C146.755 71.9216 148.425 75.6265 151.694 77.2731C152.711 77.8058 153.171 77.8784 155.52 77.8784C158.499 77.8784 159.177 77.6605 160.799 76.1107L161.695 75.239V76.256V77.2731H164.48H167.264V67.7083V58.1435H164.48H161.695V59.4026V60.6618L160.678 59.669C159.08 58.1435 158.257 57.8287 155.762 57.7318C154.431 57.6834 153.22 57.7803 152.614 57.974ZM160.145 63.3496C161.186 64.1487 161.768 65.4805 161.889 67.3935C162.107 70.8077 160.412 72.9386 157.482 72.9386C155.157 72.9386 153.68 71.8732 152.978 69.6697C152.3 67.5388 153.147 64.3182 154.649 63.2286C156.15 62.1631 158.668 62.2115 160.145 63.3496Z" fill="#F4F4F4"/>
<path d="M181.187 58.1192C180.049 58.6519 178.887 59.8142 178.209 61.1702L177.7 62.1388L177.676 60.129V58.1434H174.891H172.106V67.7082V77.2729H174.988H177.894L177.966 71.752C178.039 66.7638 178.087 66.1826 178.523 65.4078C179.443 63.8096 181.792 63.1074 184.044 63.737C184.577 63.8823 185.013 63.9549 185.061 63.9065C185.11 63.858 185.328 62.5262 185.546 60.9523C185.885 58.5792 185.885 58.0465 185.618 57.877C185.013 57.4896 182.204 57.6349 181.187 58.1192Z" fill="#F4F4F4"/>
<path d="M111.618 65.0939L111.69 72.0677L112.392 73.5932C113.192 75.3367 114.257 76.3537 116.17 77.2496C117.332 77.7823 117.913 77.8792 120.577 77.9518C124.524 78.0729 126.388 77.5886 128.205 75.942C130.505 73.908 130.941 71.9466 130.941 63.7621V58.1443H128.035H125.129V64.0042C125.129 69.2588 125.081 69.9852 124.669 70.9054C124.064 72.213 123.071 72.7215 121.11 72.7215C119.39 72.7215 118.422 72.2856 117.72 71.1233C117.308 70.4453 117.26 69.7431 117.187 64.2464L117.114 58.1443H114.33H111.545L111.618 65.0939Z" fill="#F4F4F4"/>
<path d="M188.329 67.7082V77.2729H191.235H194.141V67.7082V58.1434H191.235H188.329V67.7082Z" fill="#F4F4F4"/>
<path d="M54.4008 0.0533085C49.6305 0.561815 48.6135 7.05134 52.9721 9.20644C53.4322 9.44859 54.425 9.66652 55.1514 9.69074C56.2895 9.73917 56.6527 9.61809 57.6697 8.94008C59.2437 7.89885 59.9701 6.54283 59.8975 4.82359C59.8006 2.86221 59.6069 2.40213 58.4688 1.3609C57.1612 0.174381 56.1684 -0.140409 54.4008 0.0533085Z" fill="#F4F4F4"/>
<path d="M54.7877 13.0566C54.5213 13.105 54.2307 13.2745 54.1339 13.444C54.037 13.5893 53.9644 15.6718 53.9644 18.0932C53.9886 22.5003 53.8433 23.5173 53.1169 23.5173C52.5841 23.5173 51.4945 24.1469 51.1313 24.7038C50.8407 25.1155 50.768 26.9074 50.768 35.1403C50.7438 46.2791 50.6228 45.5042 52.5599 46.4728C54.376 47.3687 57.9598 46.9571 59.0979 45.6979C59.5095 45.2378 59.5337 44.5356 59.4611 35.1161C59.3885 23.8079 59.4611 24.3406 57.5966 23.7352C55.8289 23.1783 55.8531 23.2267 55.8773 18.1174C55.9258 13.2503 55.8289 12.8144 54.7877 13.0566ZM56.1679 25.2608C56.7975 25.4545 57.2091 25.7451 57.3544 26.1325C57.5966 26.7621 57.645 42.9132 57.4271 43.8092C57.2091 44.5356 56.1437 45.0683 54.8603 45.0683C53.7464 45.0441 53.2137 44.7778 52.7779 43.9303C52.3904 43.2038 52.3662 27.9486 52.7536 26.641C52.9474 26.0114 53.2622 25.624 53.7949 25.3576C54.715 24.8975 54.9572 24.8975 56.1679 25.2608Z" fill="#F4F4F4"/>
</svg>
