<svg width="37" height="35" viewBox="0 0 37 35" fill="none" xmlns="http://www.w3.org/2000/svg">
<g filter="url(#filter0_d_397_12293)">
<rect x="6" y="6" width="25" height="23" rx="11.5" fill="white"/>
<path d="M14.8967 13.7402C14.4541 13.9095 14.332 14.1404 14.3473 14.71C14.3626 15.0795 14.6373 15.449 15.7057 16.542L17.0488 17.8968L15.6904 19.2669C14.561 20.4062 14.332 20.7295 14.332 21.1297C14.332 21.7301 14.6983 22.0996 15.2936 22.0996C15.6904 22.0996 16.0109 21.8687 17.1403 20.7295L18.4987 19.3593L19.8571 20.7295C20.9865 21.8687 21.307 22.0996 21.7038 22.0996C22.2991 22.0996 22.6654 21.7301 22.6654 21.1297C22.6654 20.7295 22.4364 20.4062 21.307 19.2669L19.9486 17.8968L21.2917 16.542C22.4059 15.4182 22.6348 15.0949 22.6501 14.6792C22.6654 14.0635 22.3143 13.694 21.7038 13.694C21.307 13.694 20.9865 13.9249 19.8571 15.0641L18.4987 16.4343L17.1709 15.0949C15.782 13.7248 15.4462 13.5246 14.8967 13.7402Z" fill="#C22424"/>
</g>
<defs>
<filter id="filter0_d_397_12293" x="0" y="0" width="37" height="35" filterUnits="userSpaceOnUse" color-interpolation-filters="sRGB">
<feFlood flood-opacity="0" result="BackgroundImageFix"/>
<feColorMatrix in="SourceAlpha" type="matrix" values="0 0 0 0 0 0 0 0 0 0 0 0 0 0 0 0 0 0 127 0" result="hardAlpha"/>
<feMorphology radius="1" operator="dilate" in="SourceAlpha" result="effect1_dropShadow_397_12293"/>
<feOffset/>
<feGaussianBlur stdDeviation="2.5"/>
<feComposite in2="hardAlpha" operator="out"/>
<feColorMatrix type="matrix" values="0 0 0 0 0 0 0 0 0 0 0 0 0 0 0 0 0 0 0.25 0"/>
<feBlend mode="normal" in2="BackgroundImageFix" result="effect1_dropShadow_397_12293"/>
<feBlend mode="normal" in="SourceGraphic" in2="effect1_dropShadow_397_12293" result="shape"/>
</filter>
</defs>
</svg>
