<svg width="18" height="18" viewBox="0 0 18 18" fill="none" xmlns="http://www.w3.org/2000/svg">
<path d="M0.346939 0.347332C-0.115646 0.810444 -0.115646 17.21 0.346939 17.6731C0.564626 17.891 2.06122 18 5.2449 18H9.81633V14.3224V10.6447H8.59184H7.36735V9.41884V8.19296H8.56463H9.78912L9.97959 6.66742C10.2517 4.29739 11.6122 3.23496 13.9796 3.50738C14.6327 3.5891 14.7143 3.69807 14.7143 4.65153C14.7143 5.71396 14.7143 5.71396 13.5714 5.79569C12.4014 5.87741 12.4014 5.87741 12.3197 7.04881L12.2381 8.19296H13.517C14.6871 8.19296 14.7687 8.24745 14.6054 8.79228C14.5238 9.14642 14.4422 9.69126 14.4422 10.0182C14.4422 10.563 14.3061 10.6447 13.3537 10.6447H12.2653V14.3224V18H14.7959C16.4014 18 17.4354 17.891 17.6531 17.6731C18.1156 17.21 18.1156 0.810444 17.6531 0.347332C17.1905 -0.115778 0.809524 -0.115778 0.346939 0.347332Z" fill="#F4F4F4"/>
</svg>
