<svg width="17" height="21" viewBox="0 0 17 21" fill="none" xmlns="http://www.w3.org/2000/svg">
<path d="M5.33333 1.46662C5.12 2.53328 4.50667 3.73328 3.12 5.81328C0.64 9.57328 0.0266667 11.0933 0 13.44C0 15.68 0.56 16.9866 2.18667 18.5866C3.6 19.9466 5.2 20.8 6.32 20.8C7.12 20.8 7.2 20.72 7.2 20.0266C7.2 19.5733 7.06667 19.1466 6.90667 19.0666C6.74667 18.96 6.26667 18.4 5.84 17.8133C4.8 16.3733 4.77333 14.6933 5.76 13.4133C6.64 12.2666 6.93333 12.2933 6.93333 13.6C6.93333 14.5066 7.14667 14.88 8.66667 16.5866C9.62667 17.6533 10.5867 19.04 10.8267 19.6533C11.4133 21.1733 12.2933 21.2266 13.6533 19.7866C16.4 16.9866 16.7467 12.96 14.7467 7.51995C14.4 6.58662 14.2133 6.39995 13.6 6.39995C12.9867 6.39995 12.8 6.58662 12.4267 7.57328C11.7067 9.46662 11.3067 9.57328 11.12 7.97328C10.9067 6.31995 9.76 3.75995 8.24 1.59995C7.33333 0.293283 6.98667 -4.95911e-05 6.37333 -4.95911e-05C5.70667 -4.95911e-05 5.62667 0.106617 5.33333 1.46662Z" fill="black"/>
</svg>
