<svg width="25" height="19" viewBox="0 0 25 19" fill="none" xmlns="http://www.w3.org/2000/svg">
<path d="M4.02905 0.737623C3.90079 0.771702 3.69446 0.942097 3.43236 1.21473C1.61441 3.12315 0.460065 5.52003 0.092013 8.14978C-0.030671 9.04151 -0.030671 10.5921 0.092013 11.4781C0.454488 14.0852 1.61441 16.4991 3.40448 18.3848C3.61639 18.6006 3.85618 18.8108 3.93983 18.8449C4.16847 18.9301 4.56998 18.913 4.78746 18.8108C5.15551 18.629 5.35627 18.0497 5.20013 17.6237C5.16667 17.5385 4.92688 17.2318 4.66478 16.9421C3.22603 15.3575 2.36724 13.6024 1.98804 11.4895C1.84862 10.6943 1.84862 8.93359 1.98804 8.13842C2.28359 6.47991 2.94163 4.91229 3.87291 3.64001C4.03463 3.41282 4.40268 2.97547 4.68151 2.66308C5.24474 2.0383 5.34512 1.82815 5.25589 1.44192C5.18897 1.13521 5.04398 0.947777 4.754 0.794422C4.48633 0.658106 4.33576 0.646748 4.02905 0.737623Z" fill="#F4F4F4"/>
<path d="M20.3135 0.850927C19.9622 1.03268 19.8116 1.28827 19.8116 1.68586C19.8116 2.06641 19.8507 2.13456 20.3972 2.71391C21.5738 3.96346 22.4828 5.66741 22.901 7.39975C23.1687 8.50731 23.2412 10.1942 23.0683 11.3131C22.7393 13.4885 21.808 15.414 20.3302 16.9816C19.8339 17.5098 19.7559 17.6461 19.7559 18.004C19.7559 18.5322 20.1183 18.9014 20.637 18.9014C20.7987 18.9014 20.9994 18.8673 21.0887 18.8218C21.295 18.7083 22.1649 17.7768 22.5832 17.2145C23.8658 15.4764 24.6465 13.5055 24.942 11.262C25.0313 10.5804 25.0145 8.92194 24.9142 8.16652C24.5628 5.59357 23.4531 3.24213 21.7244 1.40187C21.3452 1.00428 21.1556 0.839567 20.9939 0.794128C20.6871 0.697573 20.5979 0.708931 20.3135 0.850927Z" fill="#F4F4F4"/>
<path d="M8.12927 3.55945C7.80026 3.71849 7.15895 4.4455 6.69053 5.18388C6.16075 6.02449 5.76482 6.99006 5.51945 8.01811C5.41907 8.46681 5.40234 8.69968 5.40234 9.81293C5.40234 10.9262 5.41907 11.159 5.51945 11.6077C5.8652 13.0561 6.48977 14.317 7.39875 15.3962C7.92852 16.021 8.15158 16.1743 8.53078 16.1743C9.01594 16.1743 9.32265 15.9414 9.43976 15.4871C9.53456 15.1292 9.42861 14.8623 9.01594 14.4022C8.10697 13.3912 7.52701 12.2496 7.29837 11.0057C7.18126 10.3979 7.18126 9.22791 7.29837 8.62017C7.52143 7.39901 8.11254 6.21761 8.96018 5.28044C9.45091 4.74653 9.53456 4.42846 9.32265 3.98544C9.11074 3.53673 8.56424 3.34362 8.12927 3.55945Z" fill="#F4F4F4"/>
<path d="M16.0423 3.50944C15.8583 3.58328 15.585 3.94679 15.5404 4.16262C15.4735 4.53749 15.5516 4.7306 16.0088 5.25314C16.5944 5.93472 16.8174 6.25279 17.113 6.84349C18.167 8.94502 18.0164 11.4839 16.7226 13.4605C16.6111 13.6422 16.3044 14.0341 16.0479 14.3295C15.5516 14.9031 15.4735 15.0849 15.546 15.4711C15.5683 15.5904 15.6687 15.7722 15.7914 15.9085C15.9865 16.1186 16.0311 16.1413 16.3379 16.1641C16.5832 16.1811 16.7282 16.1584 16.8844 16.0845C17.113 15.9766 17.771 15.2439 18.2004 14.6192C18.5573 14.108 19.0425 13.097 19.2488 12.4551C19.5667 11.4555 19.6169 11.0806 19.6169 9.81403C19.6169 8.88822 19.5946 8.54744 19.5109 8.16689C19.1819 6.63902 18.5239 5.2929 17.5312 4.1399C17.0572 3.58328 16.8509 3.45264 16.4717 3.45832C16.2988 3.45832 16.1092 3.48104 16.0423 3.50944Z" fill="#F4F4F4"/>
<path d="M11.9141 8.05875C11.4568 8.19506 10.9047 8.76304 10.7765 9.23447C10.7486 9.34806 10.7207 9.61501 10.7207 9.82517C10.7207 10.8816 11.4624 11.6313 12.5052 11.6313C13.5536 11.6313 14.2897 10.8816 14.2897 9.81381C14.2897 8.73464 13.548 7.99059 12.4885 8.00195C12.2654 8.00195 12.0089 8.03035 11.9141 8.05875Z" fill="#F4F4F4"/>
</svg>
