<svg width="25" height="19" viewBox="0 0 25 19" fill="none" xmlns="http://www.w3.org/2000/svg">
<path d="M4.02905 0.737623C3.90079 0.771702 3.69446 0.942097 3.43236 1.21473C1.61441 3.12315 0.460065 5.52003 0.092013 8.14978C-0.030671 9.04151 -0.030671 10.5921 0.092013 11.4781C0.454488 14.0852 1.61441 16.4991 3.40448 18.3848C3.61639 18.6006 3.85618 18.8108 3.93983 18.8449C4.16847 18.9301 4.56998 18.913 4.78746 18.8108C5.15551 18.629 5.35627 18.0497 5.20013 17.6237C5.16667 17.5385 4.92688 17.2318 4.66478 16.9421C3.22603 15.3575 2.36724 13.6024 1.98804 11.4895C1.84862 10.6943 1.84862 8.93359 1.98804 8.13842C2.28359 6.47991 2.94163 4.91229 3.87291 3.64001C4.03463 3.41282 4.40268 2.97547 4.68151 2.66308C5.24474 2.0383 5.34512 1.82815 5.25589 1.44192C5.18897 1.13521 5.04398 0.947777 4.754 0.794422C4.48633 0.658106 4.33576 0.646748 4.02905 0.737623Z" fill="#252525" fill-opacity="0.6"/>
<path d="M20.3125 0.850927C19.9612 1.03268 19.8106 1.28827 19.8106 1.68586C19.8106 2.06641 19.8497 2.13456 20.3962 2.71391C21.5728 3.96346 22.4818 5.66741 22.9001 7.39975C23.1677 8.50731 23.2402 10.1942 23.0673 11.3131C22.7383 13.4885 21.8071 15.414 20.3293 16.9816C19.833 17.5098 19.7549 17.6461 19.7549 18.004C19.7549 18.5322 20.1174 18.9014 20.636 18.9014C20.7977 18.9014 20.9985 18.8673 21.0877 18.8218C21.294 18.7083 22.1639 17.7768 22.5822 17.2145C23.8648 15.4764 24.6455 13.5055 24.9411 11.262C25.0303 10.5804 25.0136 8.92194 24.9132 8.16652C24.5619 5.59357 23.4521 3.24213 21.7234 1.40187C21.3442 1.00428 21.1546 0.839567 20.9929 0.794128C20.6862 0.697573 20.5969 0.708931 20.3125 0.850927Z" fill="#252525" fill-opacity="0.6"/>
<path d="M8.1283 3.55945C7.79928 3.71849 7.15798 4.4455 6.68955 5.18388C6.15978 6.02449 5.76384 6.99006 5.51847 8.01811C5.4181 8.46681 5.40137 8.69968 5.40137 9.81293C5.40137 10.9262 5.4181 11.159 5.51847 11.6077C5.86422 13.0561 6.48879 14.317 7.39777 15.3962C7.92754 16.021 8.1506 16.1743 8.52981 16.1743C9.01497 16.1743 9.32168 15.9414 9.43878 15.4871C9.53359 15.1292 9.42763 14.8623 9.01497 14.4022C8.10599 13.3912 7.52603 12.2496 7.29739 11.0057C7.18028 10.3979 7.18028 9.22791 7.29739 8.62017C7.52045 7.39901 8.11157 6.21761 8.9592 5.28044C9.44994 4.74653 9.53359 4.42846 9.32168 3.98544C9.10977 3.53673 8.56327 3.34362 8.1283 3.55945Z" fill="#252525" fill-opacity="0.6"/>
<path d="M16.0423 3.5092C15.8583 3.58303 15.585 3.94654 15.5404 4.16238C15.4735 4.53724 15.5516 4.73036 16.0088 5.2529C16.5944 5.93448 16.8174 6.25255 17.113 6.84325C18.167 8.94478 18.0164 11.4837 16.7226 13.4602C16.6111 13.642 16.3044 14.0339 16.0479 14.3292C15.5516 14.9029 15.4735 15.0847 15.546 15.4709C15.5683 15.5902 15.6687 15.7719 15.7914 15.9082C15.9865 16.1184 16.0311 16.1411 16.3379 16.1638C16.5832 16.1809 16.7282 16.1581 16.8844 16.0843C17.113 15.9764 17.771 15.2437 18.2004 14.6189C18.5573 14.1077 19.0425 13.0967 19.2488 12.4549C19.5667 11.4553 19.6169 11.0804 19.6169 9.81379C19.6169 8.88798 19.5946 8.54719 19.5109 8.16664C19.1819 6.63877 18.5239 5.29266 17.5312 4.13966C17.0572 3.58303 16.8509 3.4524 16.4717 3.45808C16.2988 3.45808 16.1092 3.4808 16.0423 3.5092Z" fill="#252525" fill-opacity="0.6"/>
<path d="M11.9131 8.0585C11.4558 8.19482 10.9038 8.7628 10.7755 9.23422C10.7476 9.34782 10.7197 9.61477 10.7197 9.82492C10.7197 10.8814 11.4614 11.6311 12.5042 11.6311C13.5526 11.6311 14.2887 10.8814 14.2887 9.81356C14.2887 8.7344 13.547 7.99034 12.4875 8.0017C12.2644 8.0017 12.0079 8.0301 11.9131 8.0585Z" fill="#252525" fill-opacity="0.6"/>
</svg>
