<svg width="24" height="21" viewBox="0 0 24 21" fill="none" xmlns="http://www.w3.org/2000/svg">
<path d="M1.47818 0.545677C1.30973 0.634872 1.21039 0.728525 1.11537 0.889076L0.9858 1.10314L0.972842 9.71486C0.964204 16.0655 0.972842 18.389 1.0074 18.5719C1.1888 19.4727 1.95328 20.2755 2.84302 20.5118C3.06761 20.5698 4.18626 20.5787 12.0211 20.5787C21.8601 20.5787 21.156 20.601 21.7391 20.2978C22.1537 20.0882 22.6332 19.5798 22.8318 19.1516C22.9139 18.9688 23.0046 18.7057 23.0348 18.5719C23.0694 18.3935 23.078 16.3821 23.0694 10.9903L23.0564 3.6541L22.9182 3.44449C22.8232 3.30624 22.7023 3.20367 22.5511 3.12339C22.3308 3.0119 22.3049 3.00744 21.4713 3.00744H20.6161V2.25375C20.6161 1.84346 20.5989 1.39748 20.573 1.27261C20.5125 0.947052 20.3224 0.679468 20.046 0.536758L19.8214 0.420805H10.7643H1.70709L1.47818 0.545677ZM19.5364 9.33132C19.5364 14.741 19.5493 17.2562 19.5839 17.4391C19.6703 17.9252 19.9424 18.2641 20.3916 18.4381C20.8019 18.5986 21.1517 18.5183 21.2813 18.2374C21.3677 18.0501 21.3677 17.9341 21.2813 17.7468C21.2165 17.5996 21.0005 17.4569 20.8494 17.4569C20.8105 17.4569 20.7371 17.4257 20.6939 17.3811C20.6205 17.3142 20.6161 17.0466 20.6161 10.6915V4.07777H21.3288H22.0415L22.0328 11.2222L22.0199 18.3712L21.9076 18.6165C21.765 18.9286 21.48 19.223 21.1776 19.3702L20.9401 19.4861H12.0211H3.10216L2.86461 19.3702C2.56227 19.223 2.27721 18.9286 2.13468 18.6165L2.02239 18.3712L2.00943 9.92893L2.00079 1.49114H10.7686H19.5364V9.33132Z" fill="#F4F4F4"/>
<path d="M4.30669 3.529C4.16848 3.55576 3.98708 3.77874 3.96117 3.95267C3.92661 4.15782 4.04323 4.41648 4.20736 4.50122C4.31101 4.5592 5.21371 4.56812 10.7767 4.56812C17.0567 4.56812 17.2295 4.56366 17.359 4.48338C17.7218 4.25593 17.6139 3.60928 17.1992 3.52454C17.0524 3.49332 4.45354 3.49778 4.30669 3.529Z" fill="#F4F4F4"/>
<path d="M4.21644 6.15592C3.94002 6.29863 3.94434 6.2362 3.94434 9.22867C3.94434 12.1944 3.94002 12.1364 4.19917 12.297C4.31578 12.3683 4.55333 12.3728 6.98931 12.3728C9.90903 12.3728 9.83128 12.3817 9.9695 12.1052C10.0256 11.9937 10.0343 11.6012 10.0343 9.25097C10.0343 6.22282 10.0429 6.29417 9.75354 6.15592C9.62829 6.09348 9.28708 6.08457 6.98067 6.08457C4.68291 6.08457 4.33738 6.09348 4.21644 6.15592ZM8.9977 9.22867V11.3024H6.98931H4.98093V9.22867V7.1549H6.98931H8.9977V9.22867Z" fill="#F4F4F4"/>
<path d="M11.775 6.15553C11.6325 6.22689 11.5029 6.44988 11.5029 6.61489C11.5029 6.78881 11.6239 7.0118 11.7578 7.08316C11.8701 7.14559 12.2156 7.15451 14.5479 7.15451C17.4892 7.15451 17.3856 7.16343 17.5238 6.86909C17.6101 6.67732 17.6101 6.56137 17.5238 6.37406C17.3899 6.07526 17.459 6.08418 14.5393 6.08418C12.2415 6.08418 11.896 6.0931 11.775 6.15553Z" fill="#F4F4F4"/>
<path d="M11.775 8.74272C11.6325 8.81408 11.5029 9.03706 11.5029 9.20653C11.5029 9.38046 11.6325 9.59899 11.7837 9.67034C11.9089 9.73278 12.2501 9.7417 14.5479 9.7417C16.8457 9.7417 17.1869 9.73278 17.3121 9.67034C17.4633 9.59899 17.5929 9.38046 17.5929 9.20653C17.5929 9.0326 17.4633 8.81408 17.3121 8.74272C17.1869 8.68029 16.8457 8.67137 14.5393 8.67137C12.2415 8.67137 11.896 8.68029 11.775 8.74272Z" fill="#F4F4F4"/>
<path d="M11.775 11.3291C11.6325 11.4005 11.5029 11.6235 11.5029 11.793C11.5029 11.9669 11.6325 12.1854 11.7837 12.2568C11.9089 12.3192 12.2501 12.3281 14.5479 12.3281C16.8457 12.3281 17.1869 12.3192 17.3121 12.2568C17.4633 12.1854 17.5929 11.9669 17.5929 11.793C17.5929 11.619 17.4633 11.4005 17.3121 11.3291C17.1869 11.2667 16.8457 11.2578 14.5393 11.2578C12.2415 11.2578 11.896 11.2667 11.775 11.3291Z" fill="#F4F4F4"/>
<path d="M4.19484 13.9245C4.06527 14.0048 3.94434 14.2233 3.94434 14.3794C3.94434 14.5533 4.07391 14.7718 4.22508 14.8432C4.35033 14.9056 4.69154 14.9145 6.98931 14.9145C9.89607 14.9145 9.83128 14.919 9.96517 14.6247C10.0516 14.4374 10.0516 14.2768 9.96949 14.1118C9.83128 13.8353 9.90902 13.8442 6.98067 13.8442C4.54469 13.8487 4.30282 13.8531 4.19484 13.9245Z" fill="#F4F4F4"/>
<path d="M11.736 13.9289C11.5201 14.0672 11.451 14.3615 11.5719 14.6247C11.7058 14.919 11.641 14.9145 14.5478 14.9145C17.4545 14.9145 17.3897 14.919 17.5236 14.6247C17.61 14.4374 17.61 14.3214 17.5236 14.1296C17.3854 13.8353 17.4891 13.8442 14.5391 13.8442C11.9908 13.8442 11.8656 13.8487 11.736 13.9289Z" fill="#F4F4F4"/>
<path d="M4.19908 16.4976C4.13429 16.5333 4.05223 16.6358 4.00904 16.725C3.9097 16.9436 3.94857 17.1665 4.11701 17.3449L4.24659 17.4787H6.96331C9.93917 17.4787 9.83983 17.4876 9.96941 17.2111C10.0947 16.9302 10.0126 16.6269 9.77505 16.4976C9.59364 16.3995 4.37184 16.3995 4.19908 16.4976Z" fill="#F4F4F4"/>
<path d="M11.7368 16.5156C11.374 16.7431 11.482 17.3897 11.8966 17.4745C12.0737 17.5101 17.0234 17.5101 17.2005 17.4745C17.6151 17.3897 17.7231 16.7431 17.3603 16.5156C17.2307 16.4353 17.1141 16.4309 14.5485 16.4309C11.983 16.4309 11.8664 16.4353 11.7368 16.5156Z" fill="#F4F4F4"/>
</svg>
