<svg width="24" height="21" viewBox="0 0 24 21" fill="none" xmlns="http://www.w3.org/2000/svg">
<path d="M1.47915 0.545677C1.31071 0.634872 1.21137 0.728525 1.11635 0.889076L0.986776 1.10314L0.973819 9.71486C0.965181 16.0655 0.973819 18.389 1.00837 18.5719C1.18977 19.4727 1.95426 20.2755 2.84399 20.5118C3.06859 20.5698 4.18724 20.5787 12.0221 20.5787C21.861 20.5787 21.157 20.601 21.7401 20.2978C22.1547 20.0882 22.6341 19.5798 22.8328 19.1516C22.9149 18.9688 23.0056 18.7057 23.0358 18.5719C23.0704 18.3935 23.079 16.3821 23.0704 10.9903L23.0574 3.6541L22.9192 3.44449C22.8242 3.30624 22.7033 3.20367 22.5521 3.12339C22.3318 3.0119 22.3059 3.00744 21.4723 3.00744H20.6171V2.25375C20.6171 1.84346 20.5998 1.39748 20.5739 1.27261C20.5135 0.947052 20.3234 0.679468 20.047 0.536758L19.8224 0.420805H10.7652H1.70807L1.47915 0.545677ZM19.5373 9.33132C19.5373 14.741 19.5503 17.2562 19.5849 17.4391C19.6712 17.9252 19.9433 18.2641 20.3925 18.4381C20.8028 18.5986 21.1527 18.5183 21.2823 18.2374C21.3686 18.0501 21.3686 17.9341 21.2823 17.7468C21.2175 17.5996 21.0015 17.4569 20.8504 17.4569C20.8115 17.4569 20.7381 17.4257 20.6949 17.3811C20.6214 17.3142 20.6171 17.0466 20.6171 10.6915V4.07777H21.3298H22.0424L22.0338 11.2222L22.0208 18.3712L21.9085 18.6165C21.766 18.9286 21.4809 19.223 21.1786 19.3702L20.9411 19.4861H12.0221H3.10314L2.86559 19.3702C2.56325 19.223 2.27819 18.9286 2.13566 18.6165L2.02336 18.3712L2.0104 9.92893L2.00177 1.49114H10.7696H19.5373V9.33132Z" fill="#717276"/>
<path d="M4.30669 3.52924C4.16848 3.556 3.98708 3.77899 3.96117 3.95292C3.92661 4.15807 4.04323 4.41673 4.20736 4.50146C4.31101 4.55944 5.21371 4.56836 10.7767 4.56836C17.0567 4.56836 17.2295 4.5639 17.359 4.48362C17.7218 4.25618 17.6139 3.60952 17.1992 3.52479C17.0524 3.49357 4.45354 3.49803 4.30669 3.52924Z" fill="#717276"/>
<path d="M4.21742 6.15568C3.941 6.29839 3.94532 6.23595 3.94532 9.22842C3.94532 12.1941 3.941 12.1362 4.20014 12.2967C4.31676 12.3681 4.55431 12.3725 6.99029 12.3725C9.91001 12.3725 9.83226 12.3814 9.97047 12.1049C10.0266 11.9934 10.0353 11.601 10.0353 9.25072C10.0353 6.22257 10.0439 6.29393 9.75452 6.15568C9.62926 6.09324 9.28805 6.08432 6.98165 6.08432C4.68388 6.08432 4.33836 6.09324 4.21742 6.15568ZM8.99867 9.22842V11.3022H6.99029H4.9819V9.22842V7.15465H6.99029H8.99867V9.22842Z" fill="#717276"/>
<path d="M11.776 6.15578C11.6335 6.22713 11.5039 6.45012 11.5039 6.61513C11.5039 6.78906 11.6248 7.01204 11.7587 7.0834C11.871 7.14584 12.2166 7.15476 14.5489 7.15476C17.4902 7.15476 17.3865 7.16368 17.5247 6.86933C17.6111 6.67757 17.6111 6.56161 17.5247 6.37431C17.3909 6.0755 17.46 6.08442 14.5402 6.08442C12.2425 6.08442 11.8969 6.09334 11.776 6.15578Z" fill="#717276"/>
<path d="M11.776 8.74272C11.6335 8.81408 11.5039 9.03706 11.5039 9.20653C11.5039 9.38046 11.6335 9.59899 11.7846 9.67034C11.9099 9.73278 12.2511 9.7417 14.5489 9.7417C16.8466 9.7417 17.1879 9.73278 17.3131 9.67034C17.4643 9.59899 17.5938 9.38046 17.5938 9.20653C17.5938 9.0326 17.4643 8.81408 17.3131 8.74272C17.1879 8.68029 16.8466 8.67137 14.5402 8.67137C12.2425 8.67137 11.8969 8.68029 11.776 8.74272Z" fill="#717276"/>
<path d="M11.776 11.3291C11.6335 11.4005 11.5039 11.6235 11.5039 11.793C11.5039 11.9669 11.6335 12.1854 11.7846 12.2568C11.9099 12.3192 12.2511 12.3281 14.5489 12.3281C16.8466 12.3281 17.1879 12.3192 17.3131 12.2568C17.4643 12.1854 17.5938 11.9669 17.5938 11.793C17.5938 11.619 17.4643 11.4005 17.3131 11.3291C17.1879 11.2667 16.8466 11.2578 14.5402 11.2578C12.2425 11.2578 11.8969 11.2667 11.776 11.3291Z" fill="#717276"/>
<path d="M4.19582 13.9245C4.06625 14.0048 3.94531 14.2233 3.94531 14.3794C3.94531 14.5533 4.07489 14.7718 4.22605 14.8432C4.35131 14.9056 4.69252 14.9145 6.99028 14.9145C9.89704 14.9145 9.83226 14.919 9.96615 14.6247C10.0525 14.4374 10.0525 14.2768 9.97047 14.1118C9.83226 13.8353 9.91 13.8442 6.98165 13.8442C4.54567 13.8487 4.3038 13.8531 4.19582 13.9245Z" fill="#717276"/>
<path d="M11.737 13.9289C11.521 14.0672 11.4519 14.3615 11.5729 14.6247C11.7068 14.919 11.642 14.9145 14.5487 14.9145C17.4555 14.9145 17.3907 14.919 17.5246 14.6247C17.611 14.4374 17.611 14.3214 17.5246 14.1296C17.3864 13.8353 17.49 13.8442 14.5401 13.8442C11.9918 13.8442 11.8666 13.8487 11.737 13.9289Z" fill="#717276"/>
<path d="M4.19908 16.4978C4.13429 16.5335 4.05223 16.6361 4.00904 16.7253C3.9097 16.9438 3.94857 17.1668 4.11701 17.3452L4.24659 17.479H6.96331C9.93917 17.479 9.83983 17.4879 9.96941 17.2114C10.0947 16.9304 10.0126 16.6272 9.77505 16.4978C9.59364 16.3997 4.37184 16.3997 4.19908 16.4978Z" fill="#717276"/>
<path d="M11.7378 16.5154C11.375 16.7428 11.4829 17.3895 11.8976 17.4742C12.0746 17.5099 17.0243 17.5099 17.2014 17.4742C17.6161 17.3895 17.724 16.7428 17.3612 16.5154C17.2317 16.4351 17.115 16.4306 14.5495 16.4306C11.9839 16.4306 11.8673 16.4351 11.7378 16.5154Z" fill="#717276"/>
</svg>
