<svg width="61" height="63" viewBox="0 0 61 63" fill="none" xmlns="http://www.w3.org/2000/svg">
<path d="M18.6553 1.93439C12.1408 4.55711 4.35714 12.6875 1.90361 19.5066C-0.634535 26.4131 -0.634535 36.5543 1.90361 43.4608C4.35714 50.4547 12.1408 58.4977 18.9092 61.033C25.5929 63.6557 35.4071 63.6557 42.0908 61.033C48.8592 58.4977 56.6429 50.4547 59.0964 43.4608C61.6345 36.5543 61.6345 26.4131 59.0964 19.5066C56.6429 12.5127 48.8592 4.46968 42.0908 1.93439C35.4917 -0.688328 25.1699 -0.600903 18.6553 1.93439ZM38.7067 27.8993C41.6678 29.6478 44.0368 31.2214 44.0368 31.4837C44.0368 32.2705 24.2393 43.6356 23.5624 43.1985C22.7164 42.6739 22.6318 20.6431 23.4778 19.8563C23.9854 19.2443 27.2004 20.9928 38.7067 27.8993Z" fill="white"/>
</svg>
