<svg width="31" height="32" viewBox="0 0 31 32" fill="none" xmlns="http://www.w3.org/2000/svg">
<path d="M9.48058 0.98255C6.1699 2.31472 2.21429 6.44446 0.967406 9.90812C-0.322469 13.4162 -0.322469 18.5672 0.967406 22.0753C2.21429 25.6278 6.1699 29.7131 9.60957 31.0009C13.0062 32.333 17.9938 32.333 21.3904 31.0009C24.8301 29.7131 28.7857 25.6278 30.0326 22.0753C31.3225 18.5672 31.3225 13.4162 30.0326 9.90812C28.7857 6.35565 24.8301 2.27032 21.3904 0.98255C18.0368 -0.349625 12.7913 -0.305218 9.48058 0.98255ZM19.6706 14.1711C21.1755 15.0592 22.3793 15.8585 22.3793 15.9917C22.3793 16.3914 12.3183 22.1641 11.9743 21.9421C11.5444 21.6757 11.5014 10.4854 11.9313 10.0857C12.1893 9.7749 13.8232 10.663 19.6706 14.1711Z" fill="white"/>
</svg>
