<svg width="43" height="34" viewBox="0 0 43 34" fill="none" xmlns="http://www.w3.org/2000/svg">
<path d="M0 0H26C35.3888 0 43 7.61116 43 17C43 26.3888 35.3888 34 26 34H0V0Z" fill="#E4E4E4"/>
<path d="M13.5507 9.67945C11.1836 10.8411 10 12.8356 10 15.5753C10 18.3151 11.1836 20.3096 13.5507 21.4712C14.6904 22.063 15.1288 22.1507 16.5753 22.1507C17.9781 22.1507 18.4384 22.0411 19.4466 21.537L20.6301 20.9233L22.7342 22.9616C23.8959 24.0795 24.9479 25 25.0795 25C25.3863 25 26 24.3863 26 24.0795C26 23.9479 25.0795 22.8959 23.9616 21.7342L21.9233 19.6301L22.537 18.4466C23.0411 17.4384 23.1507 16.9781 23.1507 15.5753C23.1507 14.1288 23.063 13.6904 22.4712 12.5507C21.3096 10.1836 19.337 9 16.5534 9C15.1288 9 14.6904 9.08767 13.5507 9.67945ZM18.7233 10.9507C20.5644 11.8932 21.6164 13.5589 21.6164 15.5753C21.6164 18.4466 19.4466 20.6164 16.5753 20.6164C13.6822 20.6164 11.5562 18.4466 11.5342 15.5096C11.5342 13.5589 12.5644 11.9151 14.3836 10.9507C15.4356 10.4027 17.6274 10.4027 18.7233 10.9507Z" fill="#767676"/>
</svg>
