<svg width="18" height="18" viewBox="0 0 18 18" fill="none" xmlns="http://www.w3.org/2000/svg">
<path d="M0.346939 0.346939C-0.115646 0.809525 -0.115646 17.1905 0.346939 17.6531C0.809524 18.1156 17.1905 18.1156 17.6531 17.6531C18.1156 17.1905 18.1156 0.809525 17.6531 0.346939C17.1905 -0.115646 0.809524 -0.115646 0.346939 0.346939ZM8.5102 5.73469C9.13605 6.63265 9.70748 7.36735 9.78912 7.36735C9.89796 7.36735 10.5782 6.63265 11.3129 5.73469C12.0748 4.83673 12.8367 4.10204 13.0544 4.10204C13.3537 4.10204 13.2993 4.26531 12.9184 4.70068C12.619 5.05442 11.8571 5.92517 11.2313 6.65986L10.0884 7.96599L12.1565 10.9592L14.2245 13.9252L12.5102 13.8435L10.7959 13.7619L9.59864 12.0476C8.94558 11.1224 8.31973 10.3605 8.21088 10.3605C8.07483 10.3605 7.31292 11.1497 6.52381 12.1293C5.70748 13.1088 4.89116 13.898 4.67347 13.898C4.45578 13.898 4.70068 13.4354 5.29932 12.7279C5.84354 12.102 6.63265 11.1497 7.09524 10.6054L7.88435 9.62585L6.19728 7.20408C5.2449 5.87075 4.40136 4.61905 4.26531 4.42857C4.12925 4.18367 4.45578 4.10204 5.70748 4.10204H7.34014L8.5102 5.73469Z" fill="#F4F4F4"/>
</svg>
