<svg width="21" height="18" viewBox="0 0 21 18" fill="none" xmlns="http://www.w3.org/2000/svg">
<path d="M4.71154 0.274755C1.80385 0.772501 1.48077 0.88311 0.673077 1.85095L0 2.70817V9.06825V15.4283L0.888462 16.3409C2.1 17.5852 4.44231 18 10.5 18C16.5577 18 18.9 17.5852 20.1115 16.3409L21 15.4283V9.04059V2.65287L20.2462 1.79564C19.6538 1.13198 19.0885 0.827805 17.7423 0.523628C15.3192 -0.0294209 7.43077 -0.195337 4.71154 0.274755ZM12.4654 7.9898C13.3 8.45989 14 8.92998 14 9.01294C14 9.0959 13.3 9.56599 12.4654 10.0361C11.6038 10.5338 10.2577 11.3081 9.50385 11.7782L8.07692 12.6078V9.01294V5.41812L9.50385 6.24769C10.2577 6.71778 11.6038 7.49205 12.4654 7.9898Z" fill="#F4F4F4"/>
</svg>
