<svg width="29" height="20" viewBox="0 0 29 20" fill="none" xmlns="http://www.w3.org/2000/svg">
<path d="M0.838235 0.20577C0.55147 0.352829 0.382353 0.50724 0.220588 0.771946C0.0220588 1.09548 0 1.18371 0 1.76459C0 2.34547 0.0220588 2.43371 0.220588 2.75724C0.382353 3.02194 0.55147 3.17636 0.838235 3.32341L1.22794 3.5293H14.0809H26.9338L27.3235 3.32341C27.6103 3.17636 27.7794 3.02194 27.9412 2.75724C28.1397 2.43371 28.1617 2.34547 28.1617 1.76459C28.1617 1.18371 28.1397 1.09548 27.9412 0.771946C27.7794 0.50724 27.6103 0.352829 27.3235 0.20577L26.9338 -0.000112295H14.0809H1.22794L0.838235 0.20577Z" fill="#19936E"/>
<path d="M0.838235 8.44112C0.55147 8.58818 0.382353 8.74259 0.220588 9.0073C0.0220588 9.33083 0 9.41906 0 9.99994C0 10.5808 0.0220588 10.6691 0.220588 10.9926C0.382353 11.2573 0.55147 11.4117 0.838235 11.5588L1.22794 11.7646H14.0809H26.9338L27.3235 11.5588C27.6103 11.4117 27.7794 11.2573 27.9412 10.9926C28.1397 10.6691 28.1617 10.5808 28.1617 9.99994C28.1617 9.41906 28.1397 9.33083 27.9412 9.0073C27.7794 8.74259 27.6103 8.58818 27.3235 8.44112L26.9338 8.23524H14.0809H1.22794L0.838235 8.44112Z" fill="#19936E"/>
<path d="M0.838235 16.6765C0.55147 16.8235 0.382353 16.9779 0.220588 17.2426C0.0220588 17.5662 0 17.6544 0 18.2353C0 18.8162 0.0220588 18.9044 0.220588 19.2279C0.382353 19.4926 0.55147 19.6471 0.838235 19.7941L1.22794 20H14.0809H26.9338L27.3235 19.7941C27.6103 19.6471 27.7794 19.4926 27.9412 19.2279C28.1397 18.9044 28.1617 18.8162 28.1617 18.2353C28.1617 17.6544 28.1397 17.5662 27.9412 17.2426C27.7794 16.9779 27.6103 16.8235 27.3235 16.6765L26.9338 16.4706H14.0809H1.22794L0.838235 16.6765Z" fill="#19936E"/>
</svg>
