<svg width="16" height="16" viewBox="0 0 16 16" fill="none" xmlns="http://www.w3.org/2000/svg">
<path d="M3.55068 0.679451C1.18356 1.84109 0 3.83562 0 6.57534C0 9.31507 1.18356 11.3096 3.55068 12.4712C4.69041 13.063 5.12877 13.1507 6.57534 13.1507C7.97808 13.1507 8.43836 13.0411 9.44658 12.537L10.6301 11.9233L12.7342 13.9616C13.8959 15.0795 14.9479 16 15.0795 16C15.3863 16 16 15.3863 16 15.0795C16 14.9479 15.0795 13.8959 13.9616 12.7342L11.9233 10.6301L12.537 9.44657C13.0411 8.43836 13.1507 7.97808 13.1507 6.57534C13.1507 5.12877 13.063 4.69041 12.4712 3.55068C11.3096 1.18356 9.33699 0 6.55343 0C5.12877 0 4.69041 0.0876703 3.55068 0.679451ZM8.72329 1.95069C10.5644 2.89315 11.6164 4.5589 11.6164 6.57534C11.6164 9.44658 9.44658 11.6164 6.57534 11.6164C3.68219 11.6164 1.55616 9.44658 1.53425 6.50959C1.53425 4.5589 2.56438 2.91507 4.38356 1.95069C5.43562 1.40274 7.6274 1.40274 8.72329 1.95069Z" fill="#767676"/>
</svg>
