<svg width="38" height="34" viewBox="0 0 38 34" fill="none" xmlns="http://www.w3.org/2000/svg">
<rect width="38" height="34" rx="17" fill="#E4E4E4"/>
<path d="M14.5507 9.67945C12.1836 10.8411 11 12.8356 11 15.5753C11 18.3151 12.1836 20.3096 14.5507 21.4712C15.6904 22.063 16.1288 22.1507 17.5753 22.1507C18.9781 22.1507 19.4384 22.0411 20.4466 21.537L21.6301 20.9233L23.7342 22.9616C24.8959 24.0795 25.9479 25 26.0795 25C26.3863 25 27 24.3863 27 24.0795C27 23.9479 26.0795 22.8959 24.9616 21.7342L22.9233 19.6301L23.537 18.4466C24.0411 17.4384 24.1507 16.9781 24.1507 15.5753C24.1507 14.1288 24.063 13.6904 23.4712 12.5507C22.3096 10.1836 20.337 9 17.5534 9C16.1288 9 15.6904 9.08767 14.5507 9.67945ZM19.7233 10.9507C21.5644 11.8932 22.6164 13.5589 22.6164 15.5753C22.6164 18.4466 20.4466 20.6164 17.5753 20.6164C14.6822 20.6164 12.5562 18.4466 12.5342 15.5096C12.5342 13.5589 13.5644 11.9151 15.3836 10.9507C16.4356 10.4027 18.6274 10.4027 19.7233 10.9507Z" fill="#767676"/>
</svg>
