<svg width="30" height="20" viewBox="0 0 30 20" fill="none" xmlns="http://www.w3.org/2000/svg">
<path d="M14.2124 0.282482C12.7601 0.55088 11.4894 1.61254 10.9272 3.0261C10.4236 4.30844 10.5466 5.78165 11.2668 6.99838C11.5245 7.42782 12.0223 7.98847 12.356 8.22108C12.5024 8.32248 12.5961 8.42387 12.5669 8.44773C12.5434 8.47159 12.3912 8.54316 12.2272 8.6028C11.7529 8.77577 10.9272 9.22906 10.4587 9.56903C10.2186 9.742 10.0078 9.88515 9.98438 9.88515C9.96096 9.88515 9.8497 9.80761 9.73843 9.71814C9.45149 9.47957 8.78977 9.07995 8.41499 8.92488L8.09291 8.7877L8.44427 8.42984C9.23482 7.61271 9.56861 6.6107 9.43393 5.4715C9.27582 4.13548 8.39742 3.04996 7.10326 2.59666C6.56451 2.4058 5.55143 2.4058 4.96584 2.5907C3.97033 2.91278 3.14464 3.7299 2.75815 4.79156C2.64689 5.08978 2.62346 5.26275 2.62346 5.94865C2.62932 6.6942 2.64103 6.78366 2.79329 7.17135C3.01581 7.72604 3.2969 8.14951 3.67168 8.50141L3.98204 8.7877L3.65411 8.91892C3.06266 9.15153 2.35995 9.64061 1.79777 10.2072C0.655866 11.3583 0.0936951 12.6407 0.0351357 14.2213L0 15.0145H3.62483H7.24966L7.23209 15.9032C7.22038 16.4221 7.23795 16.9291 7.27894 17.1199C7.51903 18.3188 8.59067 19.3864 9.76186 19.6011C9.9961 19.6429 11.7704 19.6667 15.0322 19.6667C20.4372 19.6667 20.3377 19.6727 21.0463 19.3029C21.544 19.0464 22.1999 18.3725 22.4341 17.8715C22.6976 17.3048 22.7503 16.9529 22.7269 15.9211L22.7094 15.0145H26.3576H30V14.43C30 13.3624 29.6896 12.2709 29.1099 11.3166C28.5243 10.3384 27.2419 9.22906 26.3049 8.88909L26.0414 8.79366L26.4337 8.39405C27.1247 7.69025 27.4585 6.7777 27.4058 5.76972C27.3414 4.55298 26.8144 3.61061 25.8364 2.96646C25.3211 2.62649 24.8585 2.48334 24.1733 2.44756C23.1017 2.39388 22.276 2.71595 21.5382 3.46746C20.8647 4.15933 20.5485 4.95856 20.5544 5.94865C20.5602 6.90892 20.853 7.65447 21.5147 8.36423L21.9012 8.77577L21.3391 9.05013C21.0287 9.20521 20.6012 9.46167 20.3904 9.62868L19.998 9.93286L19.512 9.575C19.0084 9.20521 18.253 8.79366 17.7318 8.6028C17.5737 8.54316 17.4156 8.47159 17.3922 8.44773C17.3629 8.42387 17.4566 8.32248 17.603 8.22108C17.7494 8.11969 18.007 7.88111 18.1768 7.68429C18.9967 6.76577 19.3949 5.61465 19.3246 4.39791C19.2134 2.51913 18.007 0.968388 16.2093 0.40177C15.7408 0.258625 14.7043 0.193016 14.2124 0.282482ZM15.6237 1.32625C16.2678 1.46343 16.8417 1.78551 17.3219 2.27459C18.0012 2.97242 18.3057 3.70604 18.3057 4.66631C18.3057 5.62657 18.0012 6.35423 17.3102 7.05803C15.9399 8.45966 13.8552 8.41791 12.5376 6.96856C12.0808 6.46755 11.8817 6.09776 11.7295 5.49536C11.5831 4.91085 11.5831 4.42177 11.7295 3.83726C12.0691 2.48931 13.047 1.58272 14.511 1.27257C14.7628 1.21889 15.2313 1.24275 15.6237 1.32625ZM6.64064 3.53904C7.12083 3.68815 7.36678 3.83129 7.71228 4.18319C8.67265 5.16732 8.67851 6.67631 7.72399 7.65447C6.18973 9.21714 3.58969 8.12565 3.58969 5.91883C3.58969 4.30844 5.15323 3.09171 6.64064 3.53904ZM24.6828 3.56289C25.9067 3.94462 26.6504 5.26275 26.3459 6.48545C25.8598 8.40598 23.5995 9.03224 22.235 7.63061C21.7841 7.15942 21.5674 6.6107 21.5674 5.91286C21.5674 4.27266 23.1427 3.07978 24.6828 3.56289ZM15.7993 9.17538C17.2575 9.36028 18.5633 10.0044 19.676 11.0959C21.058 12.4558 21.8017 14.3227 21.7314 16.267C21.708 16.9112 21.6904 17.0007 21.5206 17.3585C21.2864 17.8416 20.8179 18.2949 20.3494 18.4858L20.0156 18.623L15.1962 18.6409C12.075 18.6528 10.2596 18.6349 10.0488 18.5932C9.30509 18.456 8.74878 18.0265 8.4267 17.3406C8.24517 16.9529 8.24517 16.947 8.25103 15.9688C8.25103 14.8535 8.34472 14.3346 8.7195 13.4161C9.88483 10.5353 12.7835 8.79963 15.7993 9.17538ZM7.15011 9.58693C7.7357 9.73007 8.37986 10.0223 8.86004 10.3683C9.05329 10.5054 9.2114 10.6307 9.2114 10.6426C9.2114 10.6605 9.09428 10.8096 8.95374 10.9766C8.39742 11.6506 7.84111 12.6884 7.56588 13.5652L7.43119 14.0006H4.22214H1.00722L1.04236 13.7739C1.45227 11.2808 3.51942 9.47957 5.99063 9.4736C6.47082 9.46764 6.80461 9.50343 7.15011 9.58693ZM25.0107 9.56307C25.9887 9.76586 26.8788 10.2788 27.6049 11.0601C28.3018 11.8057 28.7703 12.7302 28.9342 13.6845L28.9869 14.0006H25.7486H22.5102L22.4166 13.6546C22.194 12.8733 21.6319 11.8057 21.0346 11.0363L20.7476 10.6724L20.9291 10.5174C21.3742 10.1297 22.2584 9.71218 22.926 9.56307C23.4413 9.44975 24.4661 9.44975 25.0107 9.56307Z" fill="#252525" fill-opacity="0.6"/>
</svg>
