<svg width="12" height="15" viewBox="0 0 12 15" fill="none" xmlns="http://www.w3.org/2000/svg">
<path d="M0.286451 0.033699C0.180055 0.0864239 0.0954836 0.186014 0.0409216 0.320755C0.00545621 0.417417 0 1.18485 0 7.49716C0 14.3074 0.0027281 14.5681 0.051834 14.6823C0.144589 14.8991 0.283723 14.9899 0.529252 14.9899C0.706579 14.9899 0.0709307 15.3824 6.54745 11.2728C9.78571 9.21949 11.8045 7.92188 11.8591 7.86037C12.0418 7.64947 12.0473 7.33605 11.8727 7.13687C11.8018 7.05778 10.0667 5.94178 6.24736 3.51645L0.722947 0.0102663L0.545621 0.0014782C0.433768 -0.00438023 0.338285 0.00733662 0.286451 0.033699ZM5.76721 4.50357C8.34254 6.13803 10.4486 7.48251 10.4486 7.4913C10.4486 7.50594 1.12398 13.4345 1.06123 13.4609C1.04759 13.4667 1.03668 10.8452 1.03668 7.4913C1.03668 4.15793 1.04759 1.51585 1.06123 1.5217C1.07214 1.52463 3.19188 2.86911 5.76721 4.50357Z" fill="#252525" fill-opacity="0.6"/>
</svg>
